# xmcd CD database file
#
# Track frame offsets:
#	150
#	16973
#	34790
#	50863
#	68208
#	83065
#	96750
#	110298
#	126693
#	145213
#	163525
#	178930
#	197150
#	212060
#	228258
#	243213
#	260063
#	278190
#	295798
#	313540
#
# Disc length: 4368 seconds
#
# Revision: 0
# Processed by: cddbd v1.5.2PL0 Copyright (c) Steve Scherf et al.
# Submitted via: CDex 1.70beta2
#
DISCID=2b110e14
DTITLE=ChartBreakers - ChartBreakers CGC-520
DYEAR=1900
DGENRE=Country
TTITLE0=Shenandoah - Two Dozen Roses
TTITLE1=Ricky Skaggs - Same Ol' Love
TTITLE2=Doug Stone - A Jukebox With A Country Song
TTITLE3=George Strait - I've Come To Expect It From You
TTITLE4=George Strait - You Look So Good In Love
TTITLE5=Doug Stone - Warning Labels
TTITLE6=Randy Travis - An Older Pair Of Shoes
TTITLE7=Tanya Tucker - Down To My Last Teardrop
TTITLE8=Alabama - Roll On (Eighteen Wheeler)
TTITLE9=Alabama - Take Me Down
TTITLE10=Rodney Crowell - I Couldn't Leave You If I Tried
TTITLE11=Rodney Crowell - What Kind Of Love
TTITLE12=Earl Thomas Conley - Holding Her And Loving You
TTITLE13=Desert Rose Band - One Step Forward
TTITLE14=Lee Greenwood - Mornin' Ride
TTITLE15=Clint Black - We Tell Ourselves
TTITLE16=Judds - Love Can Build A Bridge
TTITLE17=Judds - Love Is Alive
TTITLE18=Reba McEntire - Fancy
TTITLE19=Reba McEntire - Is There Life Out There
EXTD=YEAR: 1900
EXTT0=
EXTT1=
EXTT2=
EXTT3=
EXTT4=
EXTT5=
EXTT6=
EXTT7=
EXTT8=
EXTT9=
EXTT10=
EXTT11=
EXTT12=
EXTT13=
EXTT14=
EXTT15=
EXTT16=
EXTT17=
EXTT18=
EXTT19=
PLAYORDER=
